<svg width="168" height="40" viewBox="0 0 168 40" xmlns="http://www.w3.org/2000/svg"><title>83AB332D-DDF7-4AF3-983D-78DF635B1CE0</title><defs><linearGradient x1=".08%" y1="49.988%" x2="100.144%" y2="49.988%" id="a"><stop stop-color="#4CBFD7" offset="0%"/><stop stop-color="#49BDD7" offset="2.126%"/><stop stop-color="#2DAED1" offset="25.25%"/><stop stop-color="#20A9CF" offset="40.5%"/><stop stop-color="#24A6CF" offset="52.61%"/><stop stop-color="#2B9CCD" offset="70.27%"/><stop stop-color="#368BC8" offset="91.24%"/><stop stop-color="#3B82C4" offset="100%"/></linearGradient><radialGradient cx="73.231%" cy="31.451%" fx="73.231%" fy="31.451%" r="81.651%" id="b"><stop stop-color="#1391AE" stop-opacity="0" offset="0%"/><stop stop-color="#1391AE" stop-opacity=".867" offset="81.39%"/><stop stop-color="#1391AE" offset="93.92%"/></radialGradient><radialGradient cx="21.266%" cy="19.99%" fx="21.266%" fy="19.99%" r="92.008%" id="c"><stop stop-color="#1391AE" stop-opacity="0" offset="1.871%"/><stop stop-color="#1290AF" stop-opacity=".307" offset="31.99%"/><stop stop-color="#0F8BB0" stop-opacity=".557" offset="56.52%"/><stop stop-color="#0A83B2" stop-opacity=".786" offset="79%"/><stop stop-color="#0C77B2" offset="100%"/></radialGradient><radialGradient cx="50.146%" cy="53.633%" fx="50.146%" fy="53.633%" r="65.322%" id="d"><stop stop-color="#FFF" offset="0%"/><stop stop-color="#FBFAFB" offset="17.59%"/><stop stop-color="#EDECED" offset="35.6%"/><stop stop-color="#D7D5D6" offset="53.82%"/><stop stop-color="#BAB8B8" offset="72.17%"/><stop stop-color="#959595" offset="90.45%"/><stop stop-color="#818282" offset="100%"/></radialGradient><radialGradient cx="28.286%" cy="21.328%" fx="28.286%" fy="21.328%" r="99.857%" id="e"><stop stop-color="#FFF" offset="0%"/><stop stop-color="#FBFAFB" offset="17.59%"/><stop stop-color="#EDECED" offset="35.6%"/><stop stop-color="#D7D5D6" offset="53.82%"/><stop stop-color="#BAB8B8" offset="72.17%"/><stop stop-color="#959595" offset="90.45%"/><stop stop-color="#818282" offset="100%"/></radialGradient><linearGradient x1="197.337%" y1="30.956%" x2="-97.161%" y2="69.926%" id="f"><stop stop-color="#4CBFD7" offset="0%"/><stop stop-color="#49BDD7" offset="2.126%"/><stop stop-color="#2DAED1" offset="25.25%"/><stop stop-color="#20A9CF" offset="40.5%"/><stop stop-color="#24A6CF" offset="52.61%"/><stop stop-color="#2B9CCD" offset="70.27%"/><stop stop-color="#368BC8" offset="91.24%"/><stop stop-color="#3B82C4" offset="100%"/></linearGradient><linearGradient x1="306.455%" y1="14.386%" x2="2.058%" y2="53.455%" id="g"><stop stop-color="#4CBFD7" offset="0%"/><stop stop-color="#49BDD7" offset="2.126%"/><stop stop-color="#2DAED1" offset="25.25%"/><stop stop-color="#20A9CF" offset="40.5%"/><stop stop-color="#24A6CF" offset="52.61%"/><stop stop-color="#2B9CCD" offset="70.27%"/><stop stop-color="#368BC8" offset="91.24%"/><stop stop-color="#3B82C4" offset="100%"/></linearGradient><linearGradient x1="103.37%" y1="40.528%" x2="-201.027%" y2="79.547%" id="h"><stop stop-color="#4CBFD7" offset="0%"/><stop stop-color="#49BDD7" offset="2.126%"/><stop stop-color="#2DAED1" offset="25.25%"/><stop stop-color="#20A9CF" offset="40.5%"/><stop stop-color="#24A6CF" offset="52.61%"/><stop stop-color="#2B9CCD" offset="70.27%"/><stop stop-color="#368BC8" offset="91.24%"/><stop stop-color="#3B82C4" offset="100%"/></linearGradient><linearGradient x1="8.848%" y1="131.869%" x2="57.435%" y2="38.569%" id="i"><stop stop-color="#0C77B2" offset="0%"/><stop stop-color="#0B7BB2" stop-opacity=".745" offset="25.55%"/><stop stop-color="#0B86B1" stop-opacity=".357" offset="64.28%"/><stop stop-color="#1391AE" stop-opacity="0" offset="100%"/></linearGradient><linearGradient x1="11.592%" y1="86.723%" x2="61.813%" y2="-6.814%" id="j"><stop stop-color="#0C77B2" offset="0%"/><stop stop-color="#0B7BB2" stop-opacity=".745" offset="25.55%"/><stop stop-color="#0B86B1" stop-opacity=".357" offset="64.28%"/><stop stop-color="#1391AE" stop-opacity="0" offset="100%"/></linearGradient><linearGradient x1="-28.049%" y1="160.488%" x2="22.171%" y2="67.07%" id="k"><stop stop-color="#0C77B2" offset="0%"/><stop stop-color="#0B7BB2" stop-opacity=".745" offset="25.55%"/><stop stop-color="#0B86B1" stop-opacity=".357" offset="64.28%"/><stop stop-color="#1391AE" stop-opacity="0" offset="100%"/></linearGradient><linearGradient x1="73.612%" y1="120.605%" x2="48.644%" y2="63.868%" id="l"><stop stop-color="#1391AE" offset="6.085%"/><stop stop-color="#1391AE" stop-opacity="0" offset="100%"/></linearGradient><linearGradient x1="111.155%" y1="146.724%" x2="85.348%" y2="89.844%" id="m"><stop stop-color="#1391AE" offset="6.085%"/><stop stop-color="#1391AE" stop-opacity="0" offset="100%"/></linearGradient><linearGradient x1="81.209%" y1="80.736%" x2="55.401%" y2="23.928%" id="n"><stop stop-color="#1391AE" offset="6.085%"/><stop stop-color="#1391AE" stop-opacity="0" offset="100%"/></linearGradient></defs><g fill="none" fill-rule="evenodd"><path d="M88.377 1.027c-.883 0-1.663.611-1.922 1.462l-3.819 13.105-5.039-14.567h-2.155c-.624 0-1.195.398-1.403 1.01L69.338 15.7 65.39 2.116c-.182-.638-.78-1.09-1.403-1.09H61L67.416 22h1.844c.83 0 1.584-.532 1.87-1.33l4.857-13.13L81.337 22h2.234c.598 0 1.117-.399 1.3-.984L91 1h-2.623v.027zM138.07 1h-2.768A1.29 1.29 0 0 0 134 2.278V22h11.91c1.168 0 2.09-.932 2.09-2.05v-1.73h-9.93V1zM127.034 15.293c2.742-1.304 4.242-3.806 4.242-7.053 0-3.487-2.328-7.24-7.448-7.24h-8.587c-.698 0-1.241.586-1.241 1.278V22h1.888c1.112 0 1.991-.932 1.991-2.05v-4.178h4.449L127.345 22H132l-5.353-6.707h.387zm-3.051-3.327h-6.13V4.779h6.13c1.319 0 2.12.666 2.56 1.225.517.639.802 1.544.802 2.369.026 1.49-1.19 3.593-3.362 3.593zM156.396 1h-6.11c-.723 0-1.286.586-1.286 1.278V22h7.396C164.41 22 168 16.703 168 11.46 168 6.27 164.409 1 156.396 1zm.456 17.22h-3.832V4.78h3.832c2.224 0 4.073.745 5.36 2.182 1.098 1.198 1.715 2.848 1.715 4.525 0 3.247-2.707 6.734-7.075 6.734z" fill="#EAEAEA" fill-rule="nonzero"/><ellipse fill="url(#a)" fill-rule="nonzero" cx="101.5" cy="11.5" rx="5.5" ry="5.5"/><ellipse fill="url(#b)" fill-rule="nonzero" cx="101.5" cy="11.5" rx="5.5" ry="5.5"/><ellipse fill="url(#c)" fill-rule="nonzero" cx="101.5" cy="11.5" rx="5.5" ry="5.5"/><path d="M104.852.431l-.855-.238c-4.61-1.267-9.583 3.881-9.997 9.9a7.402 7.402 0 0 1 2.02-4.33 7.051 7.051 0 0 1 5.102-2.164c2.046 0 3.86.871 5.18 2.244a7.352 7.352 0 0 1 1.994 5.069c0 .264-.026.554-.052.818-.414 6.02-5.387 11.168-9.997 9.9l-.854-.237c1.14.396 2.408.607 3.73.607C107.337 22 112 17.222 112 10.912c.026-4.99-2.875-9.003-7.148-10.48z" fill="url(#d)" fill-rule="nonzero"/><path d="M100.878 18.4c-2.642 0-4.947-1.425-6.19-3.616a7.417 7.417 0 0 1-.984-3.696c0-.264.025-.554.051-.818.415-6.02 5.387-11.168 9.998-9.9l.854.237a11.405 11.405 0 0 0-3.73-.607C94.663 0 90 4.778 90 11.088c0 4.99 2.9 9.003 7.148 10.48l.855.239c4.61 1.267 9.583-3.881 9.997-9.9a7.333 7.333 0 0 1-2.383 4.672 6.985 6.985 0 0 1-4.74 1.822z" fill="url(#e)" fill-rule="nonzero"/><g fill-rule="nonzero"><path d="M30.94.244h-9.248c-.792 0-1.453.676-1.453 1.488V21.62h3.567c1.057 0 1.929-.893 1.929-1.975V16.37h4.439l3.593 5.249h5.971l-4.306-6.25.502-.325c2.008-1.3 3.382-4.005 3.382-6.765 0-5.52-4.333-8.036-8.376-8.036zm.08 10.904h-5.285V5.331h5.284c1.85 0 2.827 1.46 2.827 2.895 0 1.136-.766 2.922-2.827 2.922z" fill="url(#f)" transform="translate(0 1)"/><path d="M6.843 21.62h3.567c1.057 0 1.929-.893 1.929-1.975V5.439h5.047c.898 0 1.638-.758 1.638-1.678V.298H1.215C.635.298.16.785.16 1.38v4.032h6.684V21.62z" fill="url(#g)" transform="translate(0 1)"/><path d="M46.714 21.62h3.567c1.057 0 1.929-.893 1.929-1.975V5.412h5.046c.899 0 1.638-.758 1.638-1.678V.271H41.086c-.581 0-1.057.487-1.057 1.082v4.059h6.685V21.62z" fill="url(#h)" transform="translate(0 1)"/><g><path d="M30.94.244h-9.248c-.792 0-1.453.676-1.453 1.488V21.62h3.567c1.057 0 1.929-.893 1.929-1.975V16.37h4.439l3.593 5.249h5.971l-4.306-6.25.502-.325c2.008-1.3 3.382-4.005 3.382-6.765 0-5.52-4.333-8.036-8.376-8.036zm.08 10.904h-5.285V5.331h5.284c1.85 0 2.827 1.46 2.827 2.895 0 1.136-.766 2.922-2.827 2.922z" fill="url(#i)" transform="translate(0 1)"/><path d="M6.843 21.62h3.567c1.057 0 1.929-.893 1.929-1.975V5.439h5.047c.898 0 1.638-.758 1.638-1.678V.298H1.215C.635.298.16.785.16 1.38v4.032h6.684V21.62z" fill="url(#j)" transform="translate(0 1)"/><path d="M46.714 21.62h3.567c1.057 0 1.929-.893 1.929-1.975V5.412h5.046c.899 0 1.638-.758 1.638-1.678V.271H41.086c-.581 0-1.057.487-1.057 1.082v4.059h6.685V21.62z" fill="url(#k)" transform="translate(0 1)"/></g><g><path d="M30.94.244h-9.248c-.792 0-1.453.676-1.453 1.488V21.62h3.567c1.057 0 1.929-.893 1.929-1.975V16.37h4.439l3.593 5.249h5.971l-4.306-6.25.502-.325c2.008-1.3 3.382-4.005 3.382-6.765 0-5.52-4.333-8.036-8.376-8.036zm.08 10.904h-5.285V5.331h5.284c1.85 0 2.827 1.46 2.827 2.895 0 1.136-.766 2.922-2.827 2.922z" fill="url(#l)" transform="translate(0 1)"/><path d="M6.843 21.62h3.567c1.057 0 1.929-.893 1.929-1.975V5.439h5.047c.898 0 1.638-.758 1.638-1.678V.298H1.215C.635.298.16.785.16 1.38v4.032h6.684V21.62z" fill="url(#m)" transform="translate(0 1)"/><path d="M46.714 21.62h3.567c1.057 0 1.929-.893 1.929-1.975V5.412h5.046c.899 0 1.638-.758 1.638-1.678V.271H41.086c-.581 0-1.057.487-1.057 1.082v4.059h6.685V21.62z" fill="url(#n)" transform="translate(0 1)"/></g></g><path d="M63.927 29.264h2.08l3.928 10.472h-2.344l-.836-2.42h-3.663l-.835 2.42H60l3.927-10.472zm2.257 6.248l-1.275-3.755-1.26 3.755h2.535zm19.181.601a4.836 4.836 0 0 1-.388 1.548c-.21.474-.498.885-.865 1.232a3.872 3.872 0 0 1-1.348.814c-.532.195-1.15.293-1.853.293-.792 0-1.488-.132-2.089-.396a4.113 4.113 0 0 1-1.509-1.115c-.405-.479-.71-1.058-.916-1.738a7.768 7.768 0 0 1-.307-2.251c0-.85.112-1.613.337-2.288a4.972 4.972 0 0 1 .967-1.73c.42-.48.928-.846 1.524-1.1.596-.255 1.27-.382 2.022-.382.664 0 1.243.083 1.736.25.494.166.909.405 1.246.718.337.313.608.69.813 1.13.205.44.357.933.454 1.48l-2.168.28c-.108-.617-.315-1.1-.623-1.453-.308-.352-.794-.528-1.458-.528-.84 0-1.478.316-1.912.946-.435.631-.652 1.523-.652 2.677 0 1.164.232 2.058.696 2.684.464.626 1.086.939 1.868.939.674 0 1.17-.174 1.487-.521.318-.347.516-.843.594-1.489h2.344zm10.155-6.849h2.08l3.928 10.472h-2.344l-.836-2.42h-3.663l-.835 2.42h-2.257l3.927-10.472zm2.257 6.248l-1.275-3.755-1.26 3.755h2.535zm10.829-6.248h3.912c1.602 0 2.85.435 3.744 1.305.894.87 1.341 2.161 1.341 3.872 0 .87-.125 1.633-.374 2.288a4.45 4.45 0 0 1-1.077 1.658c-.469.45-1.04.787-1.714 1.012-.674.225-1.436.337-2.286.337h-3.546V29.264zm3.59 8.61c.566 0 1.05-.081 1.45-.243.401-.161.726-.393.975-.696.25-.303.432-.663.55-1.078.117-.416.175-.883.175-1.401 0-.508-.05-.97-.154-1.386a2.71 2.71 0 0 0-.49-1.049 2.236 2.236 0 0 0-.872-.66c-.357-.156-.794-.234-1.312-.234h-1.729v6.746h1.407zm13.07-8.61h7.137v1.863h-4.953v2.288h4.66v1.877h-4.66v2.581h5.26l-.219 1.863h-7.224V29.264zm14.86 0h2.622l2.609 7.817 2.681-7.817h2.55v10.472h-2.007v-6.981l-2.389 6.981h-1.7l-2.403-6.967v6.967h-1.964V29.264zm21.16 6.204l-3.62-6.204h2.432l2.257 4.239 2.33-4.239H167l-3.531 6.204v4.268h-2.184v-4.268z" fill="#F0F0F2"/></g></svg>