<svg width="268" height="54" viewBox="0 0 268 54" xmlns="http://www.w3.org/2000/svg"><title>976D6DDE-CF74-4278-9454-76547137B936</title><defs><linearGradient x1=".08%" y1="49.988%" x2="100.144%" y2="49.988%" id="a"><stop stop-color="#4CBFD7" offset="0%"/><stop stop-color="#49BDD7" offset="2.126%"/><stop stop-color="#2DAED1" offset="25.25%"/><stop stop-color="#20A9CF" offset="40.5%"/><stop stop-color="#24A6CF" offset="52.61%"/><stop stop-color="#2B9CCD" offset="70.27%"/><stop stop-color="#368BC8" offset="91.24%"/><stop stop-color="#3B82C4" offset="100%"/></linearGradient></defs><g fill="none" fill-rule="evenodd"><rect fill="url(#a)" width="268" height="54" rx="4"/><path d="M38.504 18.504h3.976l7.504 19.992h-4.48l-1.596-4.62h-7l-1.596 4.62H31l7.504-19.992zm4.312 11.928l-2.436-7.168-2.408 7.168h4.844zm10.492-11.928h7.14c1.53 0 2.795.173 3.794.518.999.345 1.792.803 2.38 1.372.588.57.999 1.232 1.232 1.988.233.756.35 1.545.35 2.366 0 .877-.117 1.717-.35 2.52a5.002 5.002 0 0 1-1.232 2.114c-.588.607-1.372 1.087-2.352 1.442-.98.355-2.217.532-3.71.532h-3.136v7.14h-4.116V18.504zm7.112 9.38c.728 0 1.33-.075 1.806-.224.476-.15.854-.355 1.134-.616.28-.261.471-.583.574-.966.103-.383.154-.798.154-1.246 0-.467-.056-.877-.168-1.232a1.934 1.934 0 0 0-.588-.896c-.28-.243-.658-.43-1.134-.56-.476-.13-1.078-.196-1.806-.196h-2.968v5.936h2.996zm11.808-9.38h7.14c1.53 0 2.795.173 3.794.518.999.345 1.792.803 2.38 1.372.588.57.999 1.232 1.232 1.988.233.756.35 1.545.35 2.366 0 .877-.117 1.717-.35 2.52a5.002 5.002 0 0 1-1.232 2.114c-.588.607-1.372 1.087-2.352 1.442-.98.355-2.217.532-3.71.532h-3.136v7.14h-4.116V18.504zm7.112 9.38c.728 0 1.33-.075 1.806-.224.476-.15.854-.355 1.134-.616.28-.261.471-.583.574-.966.103-.383.154-.798.154-1.246 0-.467-.056-.877-.168-1.232a1.934 1.934 0 0 0-.588-.896c-.28-.243-.658-.43-1.134-.56-.476-.13-1.078-.196-1.806-.196h-2.968v5.936h2.996zm11.808-9.38h4.172v16.408h9.464l-.448 3.584H91.148V18.504zm18.724 11.844l-6.916-11.844h4.648l4.312 8.092 4.452-8.092h4.424l-6.748 11.844v8.148h-4.172v-8.148zM140.264 39c-1.493 0-2.828-.243-4.004-.728a8.141 8.141 0 0 1-2.996-2.1c-.821-.915-1.451-2.016-1.89-3.304-.439-1.288-.658-2.744-.658-4.368s.22-3.08.658-4.368c.439-1.288 1.073-2.39 1.904-3.304a8.27 8.27 0 0 1 3.01-2.1c1.176-.485 2.501-.728 3.976-.728 1.493 0 2.828.243 4.004.728a8.014 8.014 0 0 1 2.982 2.1c.812.915 1.433 2.016 1.862 3.304.43 1.288.644 2.744.644 4.368s-.21 3.08-.63 4.368c-.42 1.288-1.036 2.39-1.848 3.304a8.014 8.014 0 0 1-2.982 2.1c-1.176.485-2.52.728-4.032.728zm-.028-3.584c1.755 0 3.061-.597 3.92-1.792s1.288-2.903 1.288-5.124c0-2.203-.43-3.906-1.288-5.11-.859-1.204-2.165-1.806-3.92-1.806s-3.061.602-3.92 1.806c-.859 1.204-1.288 2.907-1.288 5.11 0 2.221.43 3.93 1.288 5.124.859 1.195 2.165 1.792 3.92 1.792zM154.2 18.504h3.752l8.232 13.104V18.504h4.06v19.992h-3.724l-8.26-12.992v12.992h-4.06V18.504zm21.132 0h4.172v16.408h9.464l-.448 3.584h-13.188V18.504zm17.352 0h4.172v19.992h-4.172V18.504zm9.26 0h3.752l8.232 13.104V18.504h4.06v19.992h-3.724l-8.26-12.992v12.992h-4.06V18.504zm21.132 0h13.636v3.556h-9.464v4.368h8.904v3.584h-8.904v4.928H237.3l-.42 3.556h-13.804V18.504z" fill="#F0F0F2"/></g></svg>