<svg width="268" height="54" viewBox="0 0 268 54" xmlns="http://www.w3.org/2000/svg"><title>40B0B0E9-0AEE-45E8-B35E-5A3146F32B8E</title><defs><linearGradient x1="50%" y1="0%" x2="50%" y2="100%" id="a"><stop stop-color="#E7E7E9" offset="0%"/><stop stop-color="#C9C9CE" offset="100%"/></linearGradient></defs><g transform="matrix(-1 0 0 1 268 0)" fill="none" fill-rule="evenodd"><rect fill="url(#a)" width="268" height="54" rx="4"/><path d="M220.716 27.548h-7.672v8.456c1.027.952 2.25 1.69 3.668 2.212 1.419.523 2.884.784 4.396.784 1.587 0 2.973-.252 4.158-.756 1.185-.504 2.17-1.213 2.954-2.128.784-.915 1.372-2.02 1.764-3.318.392-1.297.588-2.73.588-4.298 0-1.624-.215-3.08-.644-4.368-.43-1.288-1.04-2.39-1.834-3.304a7.862 7.862 0 0 0-2.898-2.1c-1.139-.485-2.408-.728-3.808-.728-1.288 0-2.394.159-3.318.476-.924.317-1.708.756-2.352 1.316a6.516 6.516 0 0 0-1.54 1.96 9.068 9.068 0 0 0-.826 2.408l4.144.532c.112-.504.247-.947.406-1.33a2.7 2.7 0 0 1 .686-.98c.299-.27.672-.476 1.12-.616.448-.14 1.008-.21 1.68-.21 1.624 0 2.837.607 3.64 1.82.803 1.213 1.204 2.921 1.204 5.124 0 2.221-.406 3.934-1.218 5.138-.812 1.204-2.133 1.806-3.962 1.806-.877 0-1.638-.089-2.282-.266a7.018 7.018 0 0 1-1.862-.826V31.02h3.808v-3.472zM207.6 18.504h-13.636v3.556h9.464v4.368h-8.904v3.584h8.904v4.928h-10.052l.42 3.556H207.6V18.504zm-23.728 3.612h6.02v-3.612h-16.24v3.612h6.02v16.38h4.2v-16.38zm-23.068-3.612h-7.476c-3.061 0-5.446.83-7.154 2.492-1.708 1.661-2.562 4.125-2.562 7.392 0 1.661.238 3.117.714 4.368.476 1.25 1.162 2.305 2.058 3.164.896.859 1.988 1.503 3.276 1.932 1.288.43 2.744.644 4.368.644h6.776V18.504zm-6.86 16.436c-1.083 0-2.007-.154-2.772-.462-.765-.308-1.386-.751-1.862-1.33a5.582 5.582 0 0 1-1.05-2.058c-.224-.793-.336-1.685-.336-2.674 0-.97.098-1.853.294-2.646.196-.793.509-1.46.938-2.002.43-.541.985-.961 1.666-1.26.681-.299 1.517-.448 2.506-.448h3.304v12.88h-2.688zm-15.776-16.436h-13.636v3.556h9.464v4.368h-8.904v3.584h8.904v4.928h-10.052l.42 3.556h13.804V18.504zm-23.728 3.612h6.02v-3.612h-16.24v3.612h6.02v16.38h4.2v-16.38zm-17.904-3.612H92.56l-7.504 19.992h4.48l1.596-4.62h7l1.596 4.62h4.312l-7.504-19.992zm-4.312 11.928l2.436-7.168 2.408 7.168h-4.844zM80.732 18.504H76.56v19.992h4.172V18.504zm-10.26 0H66.3v16.408h-9.464l.448 3.584h13.188V18.504zm-21.32 13.468c-.093 1.232-.49 2.128-1.19 2.688s-1.731.84-3.094.84c-.653 0-1.204-.07-1.652-.21-.448-.14-.812-.327-1.092-.56a1.992 1.992 0 0 1-.602-.826 2.877 2.877 0 0 1-.182-1.036c0-.523.196-1.013.588-1.47.392-.457 1.11-.789 2.156-.994l2.604-.476c1.027-.187 1.932-.43 2.716-.728.784-.299 1.442-.686 1.974-1.162a4.66 4.66 0 0 0 1.218-1.75c.28-.69.42-1.512.42-2.464s-.191-1.792-.574-2.52a5.151 5.151 0 0 0-1.596-1.82c-.681-.485-1.498-.854-2.45-1.106-.952-.252-1.997-.378-3.136-.378-1.456 0-2.67.168-3.64.504-.97.336-1.755.78-2.352 1.33a5.193 5.193 0 0 0-1.33 1.918 8.992 8.992 0 0 0-.574 2.268l3.948.504c.205-1.101.602-1.895 1.19-2.38.588-.485 1.48-.728 2.674-.728.71 0 1.293.06 1.75.182.457.121.826.28 1.106.476.28.196.476.425.588.686.112.261.168.532.168.812 0 .747-.21 1.307-.63 1.68-.42.373-1.134.663-2.142.868l-2.744.532c-2.165.43-3.752 1.125-4.76 2.086-1.008.961-1.512 2.347-1.512 4.158 0 .877.163 1.685.49 2.422a5.401 5.401 0 0 0 1.456 1.932c.644.55 1.451.98 2.422 1.288.97.308 2.11.462 3.416.462 2.725 0 4.811-.583 6.258-1.75s2.226-2.926 2.338-5.278h-4.228z" fill="#666"/></g></svg>