<svg width="167" height="19" viewBox="0 0 167 19" xmlns="http://www.w3.org/2000/svg"><title>FFBA111E-AE16-4B67-B067-6C6AF6D13D79</title><defs><linearGradient x1="25.947%" y1="0%" x2="25.947%" y2="100%" id="a"><stop stop-color="#9A9A9B" offset="0%"/><stop stop-color="#CCC" offset="53.056%"/><stop stop-color="#828283" offset="100%"/></linearGradient></defs><path d="M113.587.541c-.82.224-1.526.552-2.114.983a4.538 4.538 0 0 0-1.376 1.618c-.33.646-.494 1.393-.494 2.24 0 .845.12 1.576.362 2.188a4.11 4.11 0 0 0 1.05 1.555c.458.423 1.028.767 1.703 1.033.674.265 1.457.481 2.344.647l2.245.423c.901.183 1.522.475 1.86.883.34.407.507.843.507 1.308 0 .331-.051.637-.156.919-.106.28-.28.528-.52.734a2.7 2.7 0 0 1-.942.498c-.388.124-.862.186-1.426.186-1.174 0-2.065-.25-2.669-.747a2.258 2.258 0 0 1-.73-1.018c-.49-1.437-2.325-1.37-2.325-1.37h-1.618c.097 2.09.77 3.655 2.017 4.689 1.247 1.038 3.047 1.557 5.398 1.557 1.127 0 2.112-.14 2.947-.412.838-.273 1.534-.654 2.09-1.145a4.782 4.782 0 0 0 1.256-1.715 5.405 5.405 0 0 0 .422-2.153c0-1.609-.436-2.84-1.305-3.696-.869-.853-2.237-1.47-4.106-1.852l-2.367-.473c-.869-.183-1.485-.438-1.847-.772-.364-.33-.544-.828-.544-1.491 0-.25.048-.49.143-.722.099-.233.268-.437.51-.61.243-.173.559-.314.954-.423.394-.109.897-.162 1.51-.162 1.027 0 1.798.215 2.305.647.24.206.442.466.61.794.644 1.28 2.323 1.063 2.323 1.063l1.5-.19a8.204 8.204 0 0 0-.494-2.017 4.65 4.65 0 0 0-1.148-1.702c-.516-.491-1.192-.884-2.03-1.183-.837-.299-1.883-.447-3.139-.447-.983 0-1.885.111-2.706.335zM62.53 9.536c0 4.187 2.504 7.563 6.186 8.811.248.074.495.14.738.204.109.032.218.04.328.06.69.15 1.401.256 2.15.256 5.36 0 9.405-4.012 9.405-9.331 0-4.187-2.506-7.563-6.188-8.81-.25-.073-.496-.14-.737-.206-.11-.03-.22-.04-.33-.06-.69-.148-1.4-.254-2.15-.254-5.361 0-9.402 4.01-9.402 9.33zm4.06 3.105a6.134 6.134 0 0 1-.813-3.787 6.065 6.065 0 0 1 1.748-3.634 6.183 6.183 0 0 1 4.407-1.827 6.19 6.19 0 0 1 4.466 1.886 6.085 6.085 0 0 1 1.69 4.94 6.106 6.106 0 0 1-2.053 3.921 6.176 6.176 0 0 1-4.103 1.542 6.149 6.149 0 0 1-5.343-3.041zM153.454.773c-.572 0-1.036.478-1.036 1.068V18.3h1.578c.92 0 1.663-.77 1.663-1.718v-3.49h5.468c1.367 0 2.16-.396 2.16-.396 2.283-1.078 3.538-3.168 3.538-5.886 0-2.908-1.946-6.038-6.22-6.038h-7.15zm2.205 3.167h5.095c1.104 0 1.77.557 2.132 1.019.421.541.672 1.28.672 1.974 0 1.224-.998 2.992-2.804 2.992H156.6c-.394 0-.62-.002-.623 0h-.317V3.94zM145.99.773c-.572 0-1.037.478-1.037 1.068V18.3h1.609c.92 0 1.668-.77 1.668-1.718l-.036-15.81h-2.204zm-7.028 0c-.572 0-1.038.478-1.038 1.068v6.01l-7.874.022-.014-7.1h-2.205c-.574 0-1.038.478-1.038 1.068V18.3h1.609c.92 0 1.665-.77 1.665-1.718l-.01-5.36h7.867v7.078h1.611c.92 0 1.664-.77 1.664-1.718l-.032-15.81h-2.205zm-33.843 0c-.73 0-1.387.503-1.596 1.223l-3.172 10.953L96.167.773H94.39c-.52 0-.985.338-1.157.843l-3.895 11.413-3.29-11.354a1.239 1.239 0 0 0-1.174-.902h-2.481l5.329 17.528h1.523c.69 0 1.315-.45 1.56-1.113l4.028-10.974L99.27 18.3h1.847c.497 0 .928-.33 1.074-.814L107.272.773h-2.153zm-53.748 0c-.572 0-1.036.478-1.036 1.068V18.3h9.467c.92 0 1.665-.77 1.665-1.718v-1.45h-7.89V.773H51.37zm-14.38 0c-.572 0-1.036.478-1.036 1.068V18.3h9.466c.921 0 1.665-.77 1.665-1.718v-1.45h-7.89V.773h-2.205zm-15.887 0H18.9c-.572 0-1.038.478-1.038 1.068V18.3h1.61c.049 0 .09-.026.138-.03l10.995.03c.92 0 1.665-.77 1.665-1.718v-1.658H21.133l-.008-3.724 6.204.023c.92 0 1.664-.768 1.664-1.717V7.849h-7.874l-.01-3.728 9.495.027c.92 0 1.665-.768 1.665-1.717V.773H21.104zM3.45.773H1.244C.671.773.207 1.251.207 1.841V18.3h1.61c.919 0 1.665-.77 1.665-1.718L3.47 11.2l6.203.023c.92 0 1.667-.768 1.667-1.717V7.849H3.464L3.456 4.12l9.492.027c.921 0 1.665-.768 1.665-1.717V.773H3.449z" fill-rule="nonzero" fill="url(#a)"/></svg>