<svg width="39" height="32" viewBox="0 0 39 32" xmlns="http://www.w3.org/2000/svg"><title>FB4542BB-8980-42F3-8088-01AB4108C8E2</title><path d="M0 16c0-1.4.6-2.4 1.6-3.4s2.2-1.4 3.6-1.4 2.4.4 3.4 1.2h.2c2.8-1.8 6.4-2.6 10.6-2.6l.2-.2 2.2-8.4 7.6 1.2.4-.4c.2-.4.4-.4.4-.6.8-.6 1.6-1 2.6-1s1.8.4 2.6 1 1 1.6 1 2.6-.4 2-1 2.6c-.8.8-1.6 1.2-2.6 1.2-1.2 0-2.2-.4-2.8-1.2-.6-.8-1-1.8-1-3 0 0-1-.2-3-.4s-3.2-.4-3.4-.6c0 0-.2.6-.6 1.6-.4 1-.6 2.2-1 3.4-.4 1.2-.6 1.8-.6 2l.2.2c1.6 0 3 .2 4.6.6 1.6.4 3 1 4.2 1.8.6-.4.8-.6 1.2-.8.2-.2.6-.2 1-.4s.8-.2 1.4-.2c1.4 0 2.6.6 3.6 1.6s1.6 2.2 1.6 3.6c0 1-.2 1.8-.8 2.8-.6.8-1.2 1.4-2.2 1.8 0 4-2.8 7.2-8.2 9.6-.8.4-1.4.6-1.8.8-.6.2-1.6.4-2.8.6-1.2.2-2.2.2-3 .2-2.6 0-5-.4-7.2-1.2 0 0-.8-.4-2.2-1.2-2-1-3.6-2.2-4.8-3.6-1.2-1.4-2.2-3-2.2-5h-.2c-.6-.2-1.2-.8-1.8-1.4L.8 19c-.4-.6-.6-1-.6-1.4 0-.4-.2-1-.2-1.6zm1 .2c0 1.4.6 2.6 1.8 3.6.2-1.2.6-2.4 1.6-3.6 1-1.2 2-2.2 3.2-3.2-.8-.6-1.6-.8-2.6-.8s-2 .4-2.8 1.2c-.8.8-1.2 1.8-1.2 2.8zm3.2 4.6c0 1.2.4 2.2 1 3.2s1.4 2 2.6 2.6c1 .8 2 1.4 3.2 1.8 1.2.6 2.2.8 3.4 1 1.6.2 3.2.4 4.6.4 2.6 0 5-.4 7.4-1.2 2.4-.8 4.2-2.2 5.8-3.8.6-.8 1-1.6 1.4-2.2.2-.6.4-1.4.4-2.2 0-1.2-.2-2.2-.8-3.2-.6-1-1.2-2-2.2-2.6-1-.8-1.8-1.4-3-2-1.2-.6-2-1-3.2-1.2C23 11.2 21 11 19 11c-1.6 0-3.2.2-4.8.6-1.6.4-3.2 1-4.8 1.8-1.6.8-2.8 1.8-3.8 3.2-.8 1-1.4 2.6-1.4 4.2zm6-2.2c0-.8.2-1.4.8-1.8.4-.4 1-.8 1.8-.8s1.4.2 2 .8c.6.4.8 1 .8 1.8s-.2 1.4-.8 1.8c-.6.4-1.2.8-2 .8s-1.4-.2-1.8-.8c-.6-.4-.8-1-.8-1.8zm1 5.2h1.4c.6 1 1.4 1.6 2.6 2.2 1.2.4 2.4.8 3.6.8 1.2 0 2.4-.2 3.4-.8 1-.4 2-1.2 2.6-2.2H26c-.6 1.4-1.6 2.4-3 3-1.4.8-3 1-4.4 1-1.6 0-3-.4-4.4-1-1.4-.6-2.4-1.8-3-3zm10.6-5.2c0-.8.2-1.4.8-1.8.4-.4 1.2-.6 2-.6s1.4.2 1.8.8c.6.6.8 1.2.8 1.8 0 .8-.2 1.4-.8 1.8-.6.6-1.2.8-1.8.8-.8 0-1.4-.2-2-.8-.6-.6-.8-1.2-.8-2zM30 3.8c0 .8.2 1.4.8 1.8.6.6 1.2.8 1.8.8.8 0 1.4-.2 1.8-.8.4-.6.8-1.2.8-2s-.2-1.4-.8-1.8c-.6-.6-1.2-.8-1.8-.8-.8 0-1.4.2-1.8.8-.6.8-.8 1.4-.8 2zm.4 8.8c1.2.8 2.2 1.8 3 3 .8 1.2 1.4 2.4 1.8 3.8 1.2-1 1.8-2 1.8-3 0-1.2-.4-2.2-1.2-3.2-.8-.8-1.8-1.4-3-1.4-.8 0-1.6.4-2.4.8z" fill-rule="nonzero" fill="#FFF" opacity=".5"/></svg>