<svg width="38" height="32" viewBox="0 0 38 32" xmlns="http://www.w3.org/2000/svg"><title>DA3909F4-6E19-4600-99B7-1339204AA1FE</title><path d="M38 4.2c-1.2.6-2.8 1-4.4 1.2 1.6-1 2.8-2.6 3.4-4.2-1.6 1-3.2 1.6-5 2C30.8 1.6 28.6.6 26.2.6c-4.4 0-8 3.4-8 8 0 .6 0 1.2.4 2-6.4-.4-12.4-3.4-16.2-8.2-.6 1-1 2.2-1 3.8 0 2.8 1.2 5 3.4 6.4-1.2 0-2.6-.4-3.4-1 0 3.8 2.6 7 6.4 7.6-.6.4-1.2.4-1.8.4H4.4c1 3.2 3.8 5.4 7.2 5.4-2.8 2.2-6.4 3.4-9.8 3.4H0c3.4 1.8 7.6 3.2 12 3.2 14.2 0 22.2-12 22.2-22.2v-1C35.8 7.2 37 5.8 38 4.2" fill-rule="nonzero" fill="#FFF" opacity=".5"/></svg>