<svg width="37" height="36" viewBox="0 0 37 36" xmlns="http://www.w3.org/2000/svg"><title>562F8C57-D8A6-4747-B6E9-3BC4963FCBD9</title><g fill-rule="nonzero" fill="#FFF" opacity=".5"><path d="M0 36c1-3.2 2.2-6.2 3.2-9.2C-3.6 14.8 4.8 1.2 16.4.2 27.2-.8 36.2 7 36.2 17.6c0 11.2-10.8 20.6-23 16.8-1-.2-2-1.2-3.2-1.2-1.6 0-3.4 1-5 1.4-1.8.4-3.4 1-5 1.4zm10.2-6.2C20 35.8 32 29 33 19.2 34 10.4 26.8 2.4 17.4 3 6.6 3.8 0 16.8 6.6 26.4 6 28 5.4 29.6 5 31.4c1.6-.6 3.2-1.2 5.2-1.6z"/><path d="M14 9.2c1 2.2 2.6 5.4 0 6.8 1.4 2.8 3.6 4.8 6.4 6.2 1-.6 1.6-1.6 2.4-2.4 1.6.6 3.2 1.4 4.6 2.4.2 3.2-2.6 4.4-4.8 4.2-4.8-.2-11.4-6.2-13-10.8C8.8 13 10 8 14 9.2z"/></g></svg>